<?xml version="1.0" encoding="UTF-8"?>
<!-- Monochrome version for light backgrounds (dark) -->
<svg xmlns="http://www.w3.org/2000/svg" viewBox="0 0 800 300" width="800" height="300">
  <g id="signal-tower" transform="translate(60, 30)">
    <rect x="30" y="80" width="100" height="140" rx="4" fill="#1A1A1A"/>
    <rect x="34" y="84" width="92" height="132" rx="2" fill="#2A2A2A"/>
    <polygon points="20,80 80,45 140,80" fill="#1A1A1A"/>
    <polygon points="28,80 80,52 132,80" fill="#333333"/>
    <rect x="42" y="92" width="24" height="20" rx="2" fill="#333333"/>
    <line x1="54" y1="92" x2="54" y2="112" stroke="#1A1A1A" stroke-width="1.5"/>
    <line x1="42" y1="102" x2="66" y2="102" stroke="#1A1A1A" stroke-width="1.5"/>
    <rect x="74" y="92" width="24" height="20" rx="2" fill="#333333"/>
    <line x1="86" y1="92" x2="86" y2="112" stroke="#1A1A1A" stroke-width="1.5"/>
    <line x1="74" y1="102" x2="98" y2="102" stroke="#1A1A1A" stroke-width="1.5"/>
    <rect x="106" y="92" width="24" height="20" rx="2" fill="#333333"/>
    <line x1="118" y1="92" x2="118" y2="112" stroke="#1A1A1A" stroke-width="1.5"/>
    <line x1="106" y1="102" x2="130" y2="102" stroke="#1A1A1A" stroke-width="1.5"/>
    <rect x="46" y="125" width="6" height="30" rx="2" fill="#555555"/>
    <circle cx="49" cy="123" r="5" fill="#555555"/>
    <rect x="62" y="120" width="6" height="35" rx="2" fill="#1A1A1A"/>
    <circle cx="65" cy="118" r="5" fill="#1A1A1A"/>
    <rect x="78" y="125" width="6" height="30" rx="2" fill="#555555"/>
    <circle cx="81" cy="123" r="5" fill="#555555"/>
    <rect x="94" y="120" width="6" height="35" rx="2" fill="#1A1A1A"/>
    <circle cx="97" cy="118" r="5" fill="#1A1A1A"/>
    <rect x="110" y="125" width="6" height="30" rx="2" fill="#555555"/>
    <circle cx="113" cy="123" r="5" fill="#555555"/>
    <circle cx="49" cy="175" r="4" fill="#1A1A1A" opacity="0.9"/>
    <circle cx="81" cy="168" r="4" fill="#555555" opacity="0.9"/>
    <circle cx="113" cy="175" r="4" fill="#1A1A1A" opacity="0.9"/>
    <circle cx="65" cy="195" r="3.5" fill="#555555" opacity="0.8"/>
    <circle cx="97" cy="195" r="3.5" fill="#555555" opacity="0.8"/>
    <circle cx="81" cy="210" r="4" fill="#1A1A1A" opacity="0.9"/>
    <line x1="49" y1="175" x2="65" y2="195" stroke="#555555" stroke-width="1.2" opacity="0.6"/>
    <line x1="81" y1="168" x2="65" y2="195" stroke="#1A1A1A" stroke-width="1.2" opacity="0.5"/>
    <line x1="81" y1="168" x2="97" y2="195" stroke="#1A1A1A" stroke-width="1.2" opacity="0.5"/>
    <line x1="113" y1="175" x2="97" y2="195" stroke="#555555" stroke-width="1.2" opacity="0.6"/>
    <line x1="65" y1="195" x2="81" y2="210" stroke="#1A1A1A" stroke-width="1.2" opacity="0.6"/>
    <line x1="97" y1="195" x2="81" y2="210" stroke="#1A1A1A" stroke-width="1.2" opacity="0.6"/>
    <circle cx="60" cy="62" r="7" fill="#1A1A1A"/>
    <circle cx="100" cy="62" r="7" fill="#555555"/>
    <line x1="30" y1="220" x2="0" y2="240" stroke="#555555" stroke-width="3" stroke-linecap="round"/>
    <line x1="80" y1="220" x2="80" y2="245" stroke="#555555" stroke-width="3" stroke-linecap="round"/>
    <line x1="130" y1="220" x2="160" y2="240" stroke="#555555" stroke-width="3" stroke-linecap="round"/>
  </g>
  <g transform="translate(270, 75)">
    <text x="0" y="72" font-family="'Segoe UI', 'Helvetica Neue', Arial, sans-serif" font-size="88" font-weight="800" letter-spacing="-2" fill="#1A1A1A">KI</text>
    <text x="120" y="72" font-family="'Segoe UI', 'Helvetica Neue', Arial, sans-serif" font-size="88" font-weight="300" letter-spacing="-1" fill="#333333">Stellwerk</text>
    <text x="2" y="105" font-family="'Segoe UI', 'Helvetica Neue', Arial, sans-serif" font-size="20" font-weight="400" letter-spacing="6" fill="#757575">INTELLIGENZ AUF DEM RICHTIGEN GLEIS</text>
    <line x1="0" y1="115" x2="500" y2="115" stroke="#E0E0E0" stroke-width="1"/>
    <line x1="0" y1="115" x2="180" y2="115" stroke="#1A1A1A" stroke-width="2"/>
    <circle cx="180" cy="115" r="3" fill="#1A1A1A"/>
  </g>
</svg>
